<?xml version="1.0" encoding="UTF-8" standalone="no"?>
<!DOCTYPE svg PUBLIC "-//W3C//DTD SVG 1.1//EN" "http://www.w3.org/Graphics/SVG/1.1/DTD/svg11.dtd">
<svg version="1.1" xmlns="http://www.w3.org/2000/svg" xmlns:xlink="http://www.w3.org/1999/xlink" preserveAspectRatio="xMidYMid meet" viewBox="0 0 640 640" width="640" height="640"><defs><path d="M11.12 85.58L11.41 85.59L11.7 85.62L11.99 85.65L12.28 85.69L12.57 85.74L12.86 85.8L13.14 85.86L13.43 85.93L13.71 86.01L13.99 86.1L14.27 86.2L14.55 86.3L14.82 86.41L15.09 86.53L15.36 86.66L15.63 86.79L15.89 86.94L16.15 87.09L16.4 87.24L16.65 87.41L16.9 87.58L17.15 87.77L190.54 220.36L191.11 220.81L191.66 221.28L192.19 221.76L192.7 222.26L193.19 222.77L193.66 223.3L194.12 223.84L194.55 224.39L194.96 224.96L195.36 225.54L195.73 226.12L196.08 226.72L196.42 227.33L196.73 227.95L197.02 228.58L197.3 229.21L197.55 229.85L197.78 230.5L197.99 231.16L198.17 231.83L198.34 232.5L198.48 233.17L198.61 233.85L198.71 234.53L198.79 235.22L198.84 235.91L198.88 236.6L198.89 237.29L198.88 237.99L198.85 238.69L198.79 239.38L198.71 240.08L198.61 240.77L198.49 241.47L198.34 242.16L198.17 242.85L197.97 243.53L197.75 244.22L197.51 244.89L197.24 245.57L306.25 245.57L307.04 244.98L307.86 244.4L308.72 243.82L309.63 243.25L310.57 242.68L311.55 242.13L312.57 241.59L313.63 241.05L314.73 240.54L315.88 240.03L317.08 239.54L318.32 239.07L319.6 238.62L320.93 238.19L322.31 237.78L323.74 237.39L325.21 237.02L326.74 236.68L328.32 236.36L329.95 236.07L331.63 235.81L333.36 235.58L335.15 235.38L337 235.21L338.9 235.08L340.86 234.98L342.87 234.92L344.94 234.89L347.08 234.91L349.27 234.96L351.52 235.05L353.84 235.19L356.21 235.37L358.65 235.59L361.16 235.87L363.73 236.19L366.37 236.55L369.07 236.97L371.84 237.44L374.68 237.96L374.73 237.97L374.79 237.99L374.84 238L374.9 238.01L374.95 238.02L375.01 238.03L375.07 238.05L375.12 238.06L375.18 238.07L375.23 238.09L375.29 238.1L375.34 238.11L375.4 238.13L375.45 238.14L375.5 238.16L375.56 238.17L375.61 238.19L375.67 238.21L375.72 238.22L375.78 238.24L375.83 238.26L375.89 238.27L375.94 238.29L375.99 238.31L376.05 238.33L376.1 238.34L376.15 238.36L376.21 238.38L376.26 238.4L376.31 238.42L376.37 238.44L376.42 238.46L376.47 238.48L376.53 238.5L376.58 238.52L376.63 238.54L376.69 238.56L376.74 238.59L376.79 238.61L376.84 238.63L416.77 255.63L444.13 248.17L443.73 247.47L443.36 246.76L443.02 246.04L442.71 245.31L442.43 244.58L442.17 243.84L441.95 243.1L441.75 242.35L441.58 241.59L441.44 240.84L441.32 240.08L441.24 239.32L441.18 238.55L441.14 237.79L441.14 237.03L441.16 236.27L441.21 235.51L441.29 234.76L441.39 234.01L441.52 233.26L441.67 232.52L441.86 231.78L442.06 231.05L442.3 230.32L442.56 229.61L442.84 228.9L443.15 228.21L443.49 227.52L443.85 226.85L444.24 226.18L444.65 225.53L445.08 224.89L445.55 224.27L446.03 223.66L446.54 223.07L447.07 222.49L447.63 221.93L448.21 221.39L448.82 220.86L449.45 220.36L622.85 87.77L623.1 87.59L623.35 87.41L623.6 87.25L623.85 87.09L624.11 86.94L624.37 86.8L624.64 86.66L624.91 86.53L625.18 86.41L625.45 86.3L625.73 86.2L626.01 86.1L626.29 86.02L626.57 85.94L626.86 85.86L627.14 85.8L627.43 85.74L627.72 85.69L628.01 85.65L628.3 85.62L628.59 85.6L628.89 85.58L629.18 85.57L629.47 85.57L629.77 85.58L630.06 85.6L630.35 85.62L630.65 85.65L630.94 85.69L631.23 85.74L631.52 85.8L631.81 85.86L632.1 85.93L632.38 86.01L632.67 86.1L632.95 86.2L633.23 86.31L633.51 86.42L633.79 86.54L634.06 86.67L634.33 86.81L634.6 86.96L634.86 87.11L635.11 87.27L635.36 87.43L635.61 87.61L635.84 87.78L636.08 87.97L636.3 88.16L636.52 88.35L636.74 88.56L636.95 88.76L637.15 88.98L637.35 89.2L637.54 89.42L637.72 89.65L637.9 89.88L638.07 90.12L638.24 90.36L638.39 90.61L638.55 90.86L638.69 91.11L638.83 91.37L638.96 91.63L639.08 91.9L639.2 92.17L639.3 92.44L639.4 92.72L639.5 93L639.58 93.28L639.66 93.57L639.73 93.85L639.79 94.14L639.85 94.44L639.89 94.73L639.93 95.03L639.96 95.33L639.98 95.63L640 95.93L640 96.23L640 352.23L640 352.52L639.98 352.81L639.97 353.09L639.94 353.37L639.91 353.65L639.86 353.93L639.82 354.21L639.76 354.48L639.7 354.76L639.63 355.03L639.55 355.3L639.47 355.56L639.38 355.83L639.28 356.09L639.18 356.35L639.07 356.6L638.95 356.85L638.83 357.1L638.7 357.35L638.56 357.59L638.42 357.83L638.27 358.06L638.11 358.29L637.95 358.52L637.79 358.74L637.61 358.96L637.44 359.17L637.25 359.38L637.06 359.58L636.87 359.78L636.67 359.98L636.46 360.17L636.25 360.35L636.03 360.53L635.81 360.71L635.58 360.88L635.35 361.04L635.11 361.2L634.87 361.35L634.63 361.49L568.6 399.21L567.87 399.61L567.12 399.98L566.37 400.32L565.61 400.63L564.84 400.9L564.07 401.15L563.29 401.36L562.51 401.54L561.73 401.7L560.94 401.82L560.15 401.91L559.36 401.98L558.57 402.01L557.78 402.02L557 401.99L556.21 401.94L555.43 401.86L554.65 401.75L553.88 401.61L553.11 401.44L552.35 401.25L551.6 401.03L550.86 400.78L550.12 400.5L549.4 400.2L548.68 399.86L547.98 399.51L547.29 399.12L546.61 398.71L545.95 398.28L545.3 397.81L544.66 397.33L544.05 396.81L543.45 396.27L542.87 395.71L542.3 395.12L541.76 394.5L541.24 393.87L540.74 393.2L540.26 392.52L531.67 379.64L510.64 400.67L510.84 401.45L511.03 402.23L511.2 403.02L511.35 403.8L511.48 404.59L511.6 405.38L511.7 406.17L511.78 406.97L511.85 407.76L511.9 408.55L511.93 409.34L511.94 410.14L511.94 410.93L511.92 411.72L511.89 412.51L511.84 413.3L511.77 414.09L511.68 414.87L511.58 415.65L511.46 416.44L511.33 417.21L511.18 417.99L511.01 418.76L510.83 419.53L510.63 420.29L510.41 421.06L510.18 421.81L509.93 422.56L509.67 423.31L509.39 424.05L509.09 424.79L508.78 425.52L508.45 426.25L508.1 426.97L507.74 427.68L507.37 428.39L506.98 429.09L506.57 429.78L506.15 430.46L505.71 431.14L505.25 431.8L504.78 432.46L504.3 433.1L503.8 433.72L503.29 434.34L502.77 434.94L502.24 435.53L501.69 436.11L501.13 436.68L500.57 437.23L499.99 437.77L499.4 438.3L498.79 438.81L498.18 439.31L497.56 439.8L496.93 440.27L496.29 440.73L495.64 441.18L494.98 441.61L494.31 442.02L493.63 442.43L492.94 442.81L492.25 443.19L491.55 443.55L490.84 443.89L490.12 444.22L489.39 444.53L488.66 444.83L487.92 445.11L487.17 445.37L486.42 445.62L485.66 445.86L484.9 446.07L484.13 446.28L483.35 446.46L482.57 446.63L481.78 446.78L480.99 446.91L480.2 447.03L479.4 447.13L479.55 448.1L479.67 449.06L479.77 450.02L479.84 450.98L479.89 451.94L479.91 452.9L479.91 453.86L479.88 454.82L479.83 455.77L479.75 456.72L479.65 457.66L479.53 458.6L479.38 459.54L479.21 460.47L479.01 461.4L478.79 462.32L478.55 463.23L478.29 464.14L478 465.04L477.69 465.93L477.36 466.81L477 467.69L476.62 468.56L476.22 469.41L475.8 470.26L475.36 471.09L474.89 471.92L474.41 472.73L473.9 473.54L473.37 474.33L472.82 475.1L472.25 475.87L471.66 476.62L471.05 477.36L470.42 478.08L469.76 478.79L469.09 479.48L468.4 480.16L467.69 480.82L466.96 481.46L466.21 482.08L465.45 482.69L464.67 483.27L463.89 483.83L463.09 484.36L462.28 484.88L461.46 485.37L460.63 485.84L459.78 486.29L458.93 486.71L458.07 487.12L457.2 487.5L456.32 487.85L455.43 488.19L454.54 488.5L453.64 488.79L452.73 489.05L451.82 489.29L450.9 489.51L449.98 489.7L449.05 489.88L448.11 490.02L447.18 490.15L446.24 490.25L445.3 490.32L444.35 490.37L443.4 490.4L442.46 490.41L441.51 490.39L440.56 490.34L439.61 490.27L438.66 490.18L437.71 490.06L436.76 489.92L435.82 489.75L434.87 489.56L433.93 489.34L433 489.09L432.07 488.83L431.14 488.53L431.06 489.37L430.97 490.19L430.86 491.02L430.73 491.84L430.58 492.65L430.42 493.46L430.24 494.27L430.04 495.07L429.82 495.86L429.58 496.65L429.33 497.43L429.06 498.21L428.77 498.97L428.47 499.73L428.15 500.49L427.81 501.23L427.46 501.97L427.09 502.7L426.71 503.42L426.3 504.13L425.89 504.83L425.46 505.52L425.01 506.21L424.55 506.88L424.07 507.54L423.58 508.2L423.07 508.84L422.55 509.47L422.01 510.09L421.46 510.7L420.89 511.3L420.32 511.88L419.72 512.45L419.12 513.01L418.5 513.56L417.86 514.1L417.22 514.62L416.56 515.12L415.89 515.62L415.2 516.1L414.5 516.56L413.8 517.01L413.09 517.44L412.37 517.85L411.64 518.24L410.9 518.62L410.16 518.98L409.41 519.33L408.66 519.65L407.89 519.96L407.13 520.25L406.35 520.52L405.58 520.78L404.79 521.02L404.01 521.24L403.21 521.44L402.42 521.63L401.62 521.8L400.82 521.95L400.01 522.08L399.2 522.19L398.39 522.29L397.58 522.37L396.76 522.43L395.95 522.47L395.13 522.49L394.31 522.5L393.49 522.49L392.67 522.46L391.85 522.41L391.03 522.34L390.21 522.25L389.4 522.15L388.58 522.03L387.77 521.89L386.95 521.73L386.14 521.55L385.33 521.35L384.53 521.13L383.73 520.9L383.59 522.11L383.41 523.32L383.19 524.51L382.94 525.69L382.65 526.85L382.32 528L381.96 529.14L381.56 530.25L381.13 531.36L380.66 532.44L380.16 533.51L379.63 534.56L379.07 535.59L378.47 536.6L377.85 537.59L377.19 538.56L376.51 539.5L375.79 540.43L375.05 541.33L374.28 542.2L373.49 543.06L372.66 543.88L371.81 544.68L370.94 545.46L370.04 546.21L369.12 546.92L368.17 547.62L367.2 548.28L366.21 548.91L365.2 549.51L364.16 550.08L363.11 550.62L362.03 551.12L360.94 551.6L359.83 552.03L358.7 552.44L357.55 552.81L356.39 553.14L355.2 553.43L354.01 553.69L353.82 553.73L353.64 553.76L353.45 553.8L353.27 553.83L353.08 553.87L352.9 553.9L352.71 553.93L352.53 553.96L352.34 553.99L352.15 554.02L351.97 554.04L351.78 554.07L351.6 554.1L351.41 554.12L351.22 554.14L351.04 554.17L350.85 554.19L350.66 554.21L350.47 554.23L350.29 554.25L350.1 554.27L349.91 554.28L349.73 554.3L349.54 554.31L349.35 554.33L349.16 554.34L348.98 554.35L348.79 554.37L348.6 554.38L348.41 554.39L348.22 554.4L348.04 554.4L347.85 554.41L347.66 554.42L347.47 554.42L347.28 554.43L347.09 554.43L346.91 554.43L346.72 554.43L346.53 554.43L345.98 554.43L345.43 554.42L344.89 554.4L344.34 554.37L343.79 554.33L343.25 554.29L342.71 554.24L342.17 554.18L341.62 554.11L341.09 554.03L340.55 553.95L340.01 553.86L339.48 553.76L338.94 553.65L338.41 553.54L337.88 553.41L337.36 553.28L336.83 553.15L336.31 553L335.79 552.85L335.27 552.69L334.75 552.52L334.24 552.34L333.72 552.16L333.22 551.97L332.71 551.77L332.21 551.57L331.71 551.35L331.21 551.13L330.71 550.9L330.22 550.67L329.74 550.43L329.25 550.18L328.77 549.92L328.29 549.65L327.82 549.38L327.35 549.1L326.88 548.82L326.42 548.53L325.96 548.23L286.57 521.91L269.84 534.83L269.42 535.18L268.99 535.52L268.55 535.85L268.11 536.18L267.66 536.49L267.21 536.8L266.76 537.1L266.3 537.39L265.83 537.68L265.36 537.95L264.89 538.22L264.41 538.48L263.93 538.73L263.44 538.97L262.95 539.2L262.46 539.42L261.96 539.64L261.46 539.84L260.95 540.04L260.44 540.23L259.93 540.41L259.42 540.58L258.9 540.74L258.38 540.89L257.85 541.03L257.33 541.17L256.8 541.29L256.27 541.41L255.74 541.51L255.2 541.61L254.66 541.7L254.13 541.77L253.58 541.84L253.04 541.9L252.5 541.95L251.95 541.99L251.41 542.02L250.86 542.04L250.31 542.06L249.76 542.06L249.69 542.06L249.62 542.06L249.56 542.06L249.49 542.06L249.42 542.06L249.36 542.06L249.29 542.05L249.22 542.05L249.15 542.05L249.09 542.05L249.02 542.05L248.95 542.05L248.89 542.05L248.82 542.05L248.75 542.04L248.68 542.04L248.62 542.04L248.55 542.04L248.48 542.03L248.41 542.03L248.35 542.03L248.28 542.03L248.21 542.02L248.14 542.02L248.08 542.02L248.01 542.01L247.94 542.01L247.87 542L247.81 542L247.74 542L247.67 541.99L247.6 541.99L247.54 541.98L247.47 541.98L247.4 541.97L247.33 541.97L247.26 541.96L247.2 541.95L247.13 541.95L247.06 541.94L246.08 541.85L245.1 541.73L244.13 541.57L243.18 541.39L242.23 541.18L241.29 540.94L240.36 540.68L239.45 540.38L238.55 540.06L237.65 539.71L236.78 539.34L235.91 538.94L235.06 538.52L234.22 538.07L233.4 537.59L232.59 537.09L231.8 536.57L231.03 536.03L230.27 535.46L229.53 534.87L228.81 534.26L228.11 533.62L227.42 532.97L226.76 532.29L226.11 531.6L225.49 530.88L224.89 530.15L224.31 529.4L223.75 528.62L223.21 527.83L222.7 527.03L222.21 526.2L221.74 525.36L221.3 524.5L220.89 523.63L220.5 522.74L220.14 521.83L219.8 520.91L219.49 519.98L219.21 519.03L218.95 519.13L218.68 519.22L218.42 519.32L218.16 519.41L217.89 519.49L217.62 519.58L217.36 519.66L217.09 519.74L216.82 519.82L216.55 519.89L216.28 519.97L216.01 520.04L215.74 520.1L215.47 520.17L215.2 520.23L214.93 520.29L214.65 520.35L214.38 520.41L214.11 520.46L213.83 520.51L213.56 520.56L213.28 520.61L213.01 520.65L212.73 520.69L212.46 520.73L212.18 520.77L211.9 520.8L211.63 520.83L211.35 520.86L211.07 520.89L210.79 520.91L210.51 520.93L210.24 520.95L209.96 520.97L209.68 520.98L209.4 520.99L209.12 521L208.84 521.01L208.56 521.01L208.28 521.02L207.58 521.01L206.88 520.99L206.18 520.95L205.48 520.9L204.79 520.83L204.09 520.75L203.41 520.65L202.72 520.54L202.04 520.41L201.36 520.27L200.69 520.11L200.02 519.94L199.36 519.76L198.7 519.56L198.04 519.34L197.39 519.12L196.74 518.87L196.11 518.62L195.47 518.35L194.84 518.07L194.22 517.77L193.61 517.47L193 517.14L192.4 516.81L191.8 516.46L191.22 516.1L190.64 515.73L190.07 515.34L189.5 514.94L188.95 514.53L188.4 514.1L187.86 513.67L187.33 513.22L186.81 512.76L186.3 512.28L185.8 511.8L185.31 511.3L184.83 510.8L184.36 510.28L183.9 509.74L183.56 509.34L183.24 508.94L182.92 508.53L182.61 508.11L182.31 507.69L182.01 507.27L181.73 506.84L181.44 506.41L181.17 505.97L180.9 505.53L180.65 505.08L180.39 504.63L180.15 504.18L179.91 503.72L179.69 503.26L179.47 502.8L179.25 502.33L179.05 501.86L178.85 501.39L178.66 500.91L178.48 500.43L178.3 499.95L178.14 499.46L177.98 498.97L177.83 498.48L177.68 497.99L177.55 497.49L177.42 496.99L177.3 496.49L177.19 495.99L177.09 495.48L177 494.98L176.91 494.47L176.84 493.96L176.77 493.44L176.71 492.93L176.65 492.41L176.61 491.9L176.58 491.38L176.55 490.86L176.54 490.86L176.52 490.86L176.51 490.86L176.5 490.86L176.49 490.86L176.48 490.86L176.47 490.86L176.45 490.86L176.44 490.87L176.43 490.87L176.42 490.87L176.39 490.87L176.37 490.87L176.35 490.88L176.29 490.88L176.26 490.89L176.24 490.89L176.22 490.89L176.2 490.89L176.19 490.89L176.18 490.89L176.17 490.9L176.16 490.9L176.14 490.9L176.13 490.9L176.12 490.9L176.11 490.9L176.1 490.9L176.08 490.9L176.07 490.9L175.99 490.9L175.91 490.9L175.84 490.9L175.76 490.9L175.68 490.9L175.6 490.9L175.52 490.9L175.44 490.89L175.36 490.89L175.28 490.89L175.2 490.89L175.13 490.89L175.05 490.89L174.97 490.88L174.89 490.88L174.81 490.88L174.73 490.88L174.65 490.87L174.57 490.87L174.49 490.87L174.42 490.86L174.34 490.86L174.26 490.86L174.18 490.85L174.1 490.85L174.02 490.84L173.94 490.84L173.86 490.84L173.78 490.83L173.71 490.83L173.63 490.82L173.55 490.82L173.47 490.81L173.39 490.8L173.31 490.8L173.23 490.79L173.15 490.79L173.07 490.78L173 490.77L172.92 490.77L172.18 490.7L171.44 490.62L170.71 490.52L169.98 490.41L169.25 490.29L168.53 490.15L167.81 490L167.09 489.83L166.38 489.65L165.68 489.45L164.98 489.25L164.28 489.02L163.59 488.79L162.9 488.54L162.22 488.28L161.55 488L160.88 487.72L160.21 487.41L159.56 487.1L158.9 486.77L158.26 486.43L157.62 486.08L156.99 485.72L156.37 485.34L155.75 484.95L155.14 484.55L154.54 484.13L153.95 483.71L153.36 483.27L152.78 482.82L152.22 482.36L151.66 481.89L151.1 481.4L150.56 480.9L150.03 480.4L149.51 479.88L148.99 479.35L148.49 478.81L147.99 478.26L147.51 477.69L147.5 477.68L147.13 477.24L146.77 476.8L146.42 476.34L146.08 475.89L145.74 475.43L145.41 474.96L145.09 474.49L144.77 474.02L144.47 473.54L144.17 473.06L143.88 472.57L143.59 472.08L143.31 471.58L143.05 471.08L142.78 470.58L142.53 470.07L142.29 469.56L142.05 469.05L141.82 468.53L141.6 468.01L141.38 467.49L141.18 466.96L140.98 466.43L140.79 465.89L140.61 465.36L140.44 464.82L140.27 464.27L140.11 463.73L139.97 463.18L139.83 462.63L139.7 462.08L139.57 461.52L139.46 460.96L139.35 460.4L139.25 459.84L139.16 459.28L139.08 458.71L139.01 458.15L138.95 457.58L138.9 457.01L138.77 457.03L138.65 457.05L138.53 457.07L138.41 457.08L138.29 457.1L138.17 457.12L138.04 457.14L137.92 457.15L137.8 457.17L137.68 457.18L137.56 457.2L137.43 457.21L137.31 457.23L137.19 457.24L137.07 457.26L136.94 457.27L136.82 457.28L136.7 457.29L136.58 457.3L136.45 457.31L136.33 457.32L136.21 457.33L136.09 457.34L135.96 457.35L135.84 457.36L135.72 457.37L135.6 457.38L135.47 457.38L135.35 457.39L135.23 457.4L135.11 457.4L134.98 457.41L134.86 457.41L134.74 457.42L134.61 457.42L134.49 457.42L134.37 457.43L134.24 457.43L134.12 457.43L134 457.43L133.93 457.43L133.86 457.43L133.8 457.43L133.73 457.43L133.66 457.43L133.6 457.43L133.53 457.43L133.46 457.43L133.39 457.43L133.33 457.43L133.26 457.42L133.19 457.42L133.13 457.42L133.06 457.42L132.99 457.42L132.92 457.41L132.86 457.41L132.79 457.41L132.72 457.41L132.65 457.41L132.59 457.4L132.52 457.4L132.45 457.4L132.38 457.39L132.32 457.39L132.25 457.39L132.18 457.38L132.11 457.38L132.05 457.37L131.98 457.37L131.91 457.37L131.84 457.36L131.78 457.36L131.71 457.35L131.64 457.35L131.57 457.34L131.5 457.33L131.44 457.33L131.37 457.32L131.3 457.32L130.43 457.23L129.57 457.13L128.71 457L127.86 456.84L127.01 456.67L126.18 456.47L125.35 456.25L124.53 456.01L123.71 455.74L122.91 455.46L122.12 455.15L121.33 454.83L120.56 454.48L119.79 454.12L119.04 453.73L118.3 453.32L117.57 452.9L116.85 452.45L116.14 451.99L115.45 451.51L114.77 451.01L114.1 450.49L113.45 449.95L112.81 449.4L112.18 448.83L111.57 448.24L110.98 447.64L110.4 447.02L109.84 446.38L109.29 445.73L108.76 445.06L108.25 444.38L107.75 443.68L107.28 442.96L106.82 442.24L106.38 441.5L105.96 440.74L105.56 439.97L105.17 439.19L104.81 438.39L104.47 437.59L104.16 436.77L103.87 435.96L103.6 435.14L103.35 434.31L103.13 433.48L102.93 432.64L102.75 431.81L102.6 430.97L102.47 430.12L102.36 429.28L102.28 428.43L102.21 427.59L102.17 426.74L102.16 425.9L102.16 425.05L102.19 424.2L102.24 423.36L102.31 422.52L102.41 421.68L102.53 420.84L102.67 420.01L102.83 419.18L103.01 418.35L103.22 417.53L103.44 416.72L103.69 415.91L103.97 415.1L104.26 414.31L104.57 413.52L104.91 412.73L105.27 411.96L105.65 411.19L106.05 410.43L106.47 409.68L106.92 408.95L107.38 408.22L107.87 407.5L108.38 406.79L108.91 406.1L96.54 396.21L96.24 396.49L95.93 396.75L95.62 397.02L95.31 397.27L95 397.53L94.67 397.77L94.35 398.01L94.02 398.24L93.69 398.46L93.35 398.68L93.01 398.89L92.66 399.1L92.32 399.3L91.96 399.49L91.61 399.68L91.25 399.85L90.89 400.03L90.53 400.19L90.16 400.35L89.79 400.5L89.42 400.64L89.04 400.78L88.66 400.91L88.28 401.04L87.9 401.15L87.51 401.26L87.13 401.36L86.74 401.46L86.34 401.54L85.95 401.62L85.56 401.7L85.16 401.76L84.76 401.82L84.36 401.87L83.96 401.91L83.56 401.95L83.15 401.98L82.75 402L82.34 402.01L81.94 402.02L81.66 402.01L81.38 402.01L81.11 402L80.83 401.99L80.55 401.97L80.28 401.95L80 401.93L79.73 401.9L79.46 401.87L79.18 401.84L78.91 401.8L78.64 401.76L78.36 401.71L78.09 401.67L77.82 401.62L77.55 401.56L77.28 401.5L77.02 401.44L76.75 401.37L76.48 401.31L76.22 401.23L75.95 401.16L75.69 401.08L75.43 400.99L75.17 400.91L74.91 400.82L74.65 400.73L74.39 400.63L74.13 400.53L73.88 400.43L73.62 400.32L73.37 400.21L73.12 400.1L72.87 399.98L72.62 399.86L72.37 399.74L72.13 399.61L71.88 399.48L71.64 399.35L71.4 399.21L5.38 361.49L5.13 361.35L4.89 361.2L4.65 361.04L4.42 360.88L4.19 360.71L3.97 360.53L3.75 360.35L3.54 360.17L3.33 359.98L3.13 359.79L2.94 359.59L2.75 359.38L2.56 359.17L2.39 358.96L2.21 358.74L2.05 358.52L1.89 358.29L1.73 358.06L1.58 357.83L1.44 357.59L1.3 357.35L1.17 357.1L1.05 356.85L0.93 356.6L0.82 356.35L0.72 356.09L0.62 355.83L0.53 355.56L0.45 355.3L0.37 355.03L0.3 354.76L0.24 354.48L0.18 354.21L0.14 353.93L0.09 353.65L0.06 353.37L0.03 353.09L0.02 352.81L0 352.52L0 352.23L0 96.23L0 95.93L0.02 95.63L0.04 95.33L0.07 95.03L0.11 94.73L0.15 94.44L0.21 94.14L0.27 93.85L0.34 93.57L0.42 93.28L0.5 93L0.59 92.72L0.7 92.44L0.8 92.17L0.92 91.9L1.04 91.63L1.17 91.37L1.31 91.11L1.45 90.85L1.61 90.6L1.76 90.36L1.93 90.11L2.1 89.88L2.28 89.64L2.46 89.42L2.65 89.19L2.85 88.97L3.05 88.76L3.26 88.55L3.48 88.35L3.7 88.16L3.93 87.97L4.16 87.78L4.4 87.6L4.64 87.43L4.89 87.26L5.15 87.11L5.41 86.95L5.67 86.81L5.94 86.67L6.22 86.54L6.49 86.42L6.77 86.3L7.05 86.2L7.34 86.1L7.62 86.01L7.91 85.93L8.19 85.86L8.48 85.79L8.77 85.74L9.07 85.69L9.36 85.65L9.65 85.62L9.94 85.59L10.24 85.58L10.53 85.57L10.82 85.57L11.12 85.58ZM108.89 378.78L125.5 392.06L140.07 380.8L140.68 380.3L141.31 379.83L141.94 379.37L142.59 378.92L143.24 378.5L143.9 378.09L144.57 377.7L145.25 377.32L145.94 376.97L146.63 376.63L147.33 376.31L148.04 376L148.75 375.71L149.47 375.44L150.2 375.19L150.93 374.96L151.67 374.74L152.41 374.54L153.15 374.36L153.9 374.2L154.66 374.06L155.41 373.93L156.17 373.83L156.93 373.74L157.7 373.67L158.46 373.61L159.23 373.58L160 373.56L160.77 373.57L161.54 373.59L162.31 373.63L163.09 373.69L163.86 373.77L164.63 373.87L165.4 373.99L166.16 374.12L166.93 374.28L167.69 374.45L168.45 374.65L169.21 374.86L169.97 375.09L170.71 375.34L171.45 375.61L172.18 375.9L172.9 376.2L173.61 376.52L174.31 376.85L175 377.21L175.68 377.57L176.35 377.96L177.01 378.36L177.65 378.77L178.29 379.2L178.92 379.65L179.53 380.11L180.14 380.58L180.73 381.07L181.31 381.57L181.88 382.09L182.43 382.62L182.97 383.16L183.5 383.72L184.01 384.29L184.52 384.87L185 385.46L185.48 386.07L185.93 386.68L186.38 387.31L186.81 387.95L187.22 388.6L187.62 389.27L188 389.94L188.37 390.62L188.72 391.31L189.05 392.02L189.37 392.73L189.67 393.45L189.95 394.18L190.22 394.92L190.47 395.67L191.32 395.18L192.18 394.71L193.05 394.27L193.93 393.86L194.82 393.47L195.72 393.1L196.62 392.76L197.53 392.44L198.45 392.14L199.37 391.87L200.3 391.63L201.23 391.41L202.17 391.21L203.11 391.04L204.05 390.89L205 390.77L205.94 390.67L206.89 390.59L207.84 390.54L208.8 390.52L209.75 390.51L210.7 390.54L211.65 390.59L212.6 390.66L213.55 390.75L214.5 390.88L215.44 391.02L216.39 391.19L217.32 391.39L218.26 391.6L219.19 391.85L220.11 392.12L221.03 392.41L221.94 392.73L222.85 393.07L223.75 393.43L224.64 393.82L225.52 394.24L226.4 394.68L227.27 395.15L228.12 395.63L228.96 396.14L229.78 396.67L230.58 397.22L231.37 397.78L232.14 398.37L232.9 398.97L233.63 399.6L234.35 400.24L235.05 400.9L235.73 401.57L236.39 402.26L237.04 402.97L237.66 403.69L238.27 404.43L238.85 405.18L239.42 405.95L239.97 406.73L240.49 407.53L241 408.33L241.48 409.15L241.94 409.99L242.38 410.83L242.8 411.69L243.2 412.55L243.58 413.43L243.93 414.32L244.26 415.22L244.57 416.13L244.85 417.04L245.11 417.97L245.35 418.9L245.56 419.84L245.75 420.79L245.92 421.74L246.06 422.7L246.17 423.67L246.26 424.64L246.33 425.62L246.36 426.6L246.47 426.59L246.57 426.59L246.67 426.58L246.78 426.57L246.88 426.57L246.98 426.56L247.08 426.56L247.19 426.55L247.29 426.55L247.39 426.54L247.49 426.54L247.6 426.53L247.7 426.53L247.8 426.53L247.91 426.52L248.01 426.52L248.11 426.52L248.21 426.52L248.32 426.52L248.42 426.52L248.52 426.51L248.63 426.51L248.73 426.51L248.83 426.51L248.93 426.52L249.04 426.52L249.14 426.52L249.24 426.52L249.34 426.52L249.45 426.52L249.55 426.53L249.65 426.53L249.76 426.53L249.86 426.54L249.96 426.54L250.06 426.55L250.17 426.55L250.27 426.56L250.37 426.56L250.47 426.57L251.71 426.69L252.93 426.86L254.13 427.07L255.32 427.33L256.48 427.63L257.63 427.97L258.76 428.36L259.87 428.79L260.96 429.25L262.03 429.76L263.07 430.3L264.09 430.88L265.08 431.5L266.05 432.15L266.99 432.84L267.91 433.56L268.79 434.31L269.65 435.09L270.48 435.91L271.28 436.75L272.04 437.63L272.78 438.53L273.48 439.45L274.14 440.41L274.78 441.39L275.37 442.39L275.93 443.41L276.45 444.46L276.94 445.53L277.38 446.62L277.78 447.73L278.15 448.85L278.47 450L278.75 451.16L278.98 452.33L279.17 453.52L279.32 454.73L279.42 455.95L279.47 457.18L279.48 458.42L280.3 458.51L281.11 458.63L281.91 458.77L282.71 458.93L283.5 459.11L284.28 459.31L285.06 459.53L285.83 459.77L286.59 460.02L287.35 460.3L288.09 460.59L288.83 460.91L289.56 461.24L290.28 461.59L290.99 461.95L291.69 462.34L292.37 462.74L293.05 463.16L293.72 463.59L294.38 464.05L295.02 464.51L295.65 465L296.27 465.5L296.88 466.02L297.47 466.55L298.06 467.09L298.62 467.66L299.18 468.23L299.72 468.82L300.24 469.43L300.75 470.05L301.25 470.68L301.73 471.33L302.19 471.99L302.64 472.67L303.07 473.35L303.49 474.05L303.89 474.77L304.27 475.49L304.63 476.23L304.98 476.97L305.3 477.73L305.6 478.48L305.88 479.25L306.15 480.01L306.39 480.79L306.61 481.56L306.81 482.34L306.99 483.13L307.15 483.92L307.29 484.71L307.41 485.5L307.51 486.29L307.59 487.09L307.65 487.88L307.68 488.68L307.7 489.48L307.7 490.27L307.68 491.07L307.64 491.87L307.58 492.66L307.5 493.45L307.39 494.24L307.27 495.03L307.13 495.82L306.97 496.6L306.79 497.38L306.59 498.15L306.37 498.92L306.12 499.68L305.86 500.44L305.58 501.2L305.28 501.95L304.96 502.69L304.62 503.42L304.27 504.15L303.89 504.87L303.49 505.58L303.07 506.29L302.63 506.98L337.77 530.46L338.29 530.79L338.82 531.1L339.36 531.39L339.91 531.66L340.47 531.9L341.03 532.12L341.59 532.32L342.16 532.49L342.73 532.65L343.31 532.78L343.89 532.89L344.47 532.98L345.05 533.05L345.64 533.09L346.22 533.12L346.81 533.12L347.39 533.1L347.97 533.06L348.55 533L349.13 532.92L349.7 532.82L350.27 532.69L350.84 532.55L351.4 532.39L351.95 532.2L352.5 532L353.04 531.77L353.57 531.53L354.1 531.26L354.62 530.98L355.12 530.67L355.62 530.35L356.11 530.01L356.58 529.64L357.05 529.26L357.5 528.86L357.93 528.44L358.36 527.99L358.77 527.54L359.17 527.06L359.54 526.56L359.9 526.06L360.23 525.55L360.54 525.02L360.83 524.49L361.1 523.95L361.35 523.41L361.57 522.86L361.78 522.3L361.96 521.74L362.12 521.17L362.26 520.6L362.37 520.02L362.47 519.45L362.55 518.87L362.6 518.28L362.63 517.7L362.64 517.12L362.64 516.54L362.61 515.95L362.55 515.37L362.48 514.8L362.39 514.22L362.27 513.65L362.14 513.08L361.98 512.52L361.81 511.96L361.61 511.4L361.39 510.86L361.15 510.32L360.89 509.79L360.61 509.26L360.31 508.75L359.99 508.24L359.65 507.75L359.29 507.26L358.91 506.79L358.51 506.33L358.08 505.88L357.64 505.44L357.58 505.38L357.51 505.31L357.45 505.25L357.38 505.18L357.32 505.11L357.25 505.05L357.19 504.99L357.12 504.92L357.06 504.86L356.99 504.79L356.93 504.73L356.86 504.66L356.79 504.6L356.73 504.54L356.66 504.47L356.59 504.41L356.53 504.35L356.46 504.29L356.39 504.22L356.32 504.16L356.25 504.1L356.19 504.04L356.12 503.98L356.05 503.92L355.98 503.85L355.91 503.79L355.84 503.73L355.77 503.67L355.7 503.61L355.63 503.55L355.57 503.49L355.5 503.43L355.42 503.37L355.35 503.31L355.28 503.26L355.21 503.2L355.14 503.14L355.07 503.08L355 503.02L354.93 502.96L335.15 488.93L334.92 488.76L334.7 488.59L334.48 488.41L334.26 488.23L334.05 488.04L333.85 487.84L333.65 487.64L333.46 487.44L333.28 487.23L333.1 487.02L332.92 486.8L332.75 486.58L332.59 486.36L332.44 486.13L332.29 485.89L332.14 485.66L332 485.42L331.87 485.17L331.75 484.93L331.63 484.68L331.52 484.43L331.41 484.17L331.31 483.91L331.22 483.65L331.14 483.39L331.06 483.12L330.99 482.85L330.92 482.58L330.86 482.31L330.81 482.04L330.77 481.76L330.73 481.49L330.7 481.21L330.68 480.93L330.67 480.65L330.66 480.37L330.66 480.09L330.67 479.8L330.68 479.52L330.71 479.23L330.74 478.95L330.78 478.67L330.82 478.39L330.87 478.11L330.93 477.84L331 477.56L331.07 477.29L331.15 477.02L331.24 476.76L331.34 476.5L331.44 476.24L331.54 475.98L331.66 475.73L331.78 475.48L331.91 475.23L332.04 474.99L332.18 474.75L332.32 474.52L332.47 474.28L332.63 474.06L332.79 473.83L332.96 473.62L333.14 473.4L333.32 473.19L333.5 472.99L333.69 472.78L333.89 472.59L334.09 472.4L334.3 472.21L334.51 472.03L334.72 471.86L334.95 471.69L335.17 471.52L335.4 471.36L335.64 471.21L335.88 471.06L336.12 470.92L336.37 470.79L336.63 470.66L336.89 470.54L337.15 470.42L337.41 470.31L337.67 470.21L337.94 470.12L338.21 470.03L338.48 469.95L338.75 469.88L339.02 469.82L339.3 469.76L339.57 469.71L339.84 469.67L340.12 469.63L340.4 469.61L340.67 469.59L340.95 469.57L341.23 469.57L341.5 469.57L341.78 469.58L342.05 469.59L342.33 469.61L342.6 469.64L342.88 469.68L343.15 469.72L343.42 469.77L343.69 469.83L343.96 469.9L344.23 469.97L344.5 470.05L344.76 470.13L345.02 470.23L345.28 470.33L345.54 470.43L345.8 470.55L346.05 470.67L346.3 470.79L346.55 470.93L346.79 471.07L347.03 471.22L347.27 471.37L347.51 471.54L366.73 485.18L366.74 485.18L366.74 485.19L385.61 498.58L386.17 498.92L386.73 499.23L387.3 499.53L387.88 499.79L388.46 500.03L389.05 500.25L389.65 500.44L390.25 500.61L390.85 500.75L391.46 500.87L392.07 500.96L392.68 501.03L393.29 501.08L393.9 501.11L394.51 501.11L395.12 501.08L395.72 501.04L396.33 500.97L396.93 500.88L397.53 500.76L398.12 500.63L398.7 500.47L399.28 500.28L399.86 500.08L400.42 499.86L400.98 499.61L401.53 499.34L402.07 499.05L402.6 498.74L403.12 498.4L403.62 498.05L404.12 497.68L404.6 497.28L405.06 496.86L405.52 496.43L405.95 495.97L406.38 495.49L406.78 495L407.17 494.48L407.54 493.94L407.89 493.36L408.21 492.78L408.51 492.18L408.78 491.58L409.03 490.98L409.25 490.36L409.44 489.74L409.62 489.12L409.77 488.5L409.89 487.87L409.99 487.24L410.06 486.6L410.12 485.97L410.14 485.33L410.15 484.7L410.13 484.07L410.08 483.44L410.02 482.81L409.93 482.19L409.81 481.56L409.68 480.95L409.52 480.34L409.34 479.73L409.14 479.13L408.91 478.54L408.66 477.96L408.39 477.39L408.1 476.82L407.78 476.27L407.45 475.72L407.09 475.19L406.71 474.67L406.31 474.16L405.89 473.67L405.45 473.19L404.99 472.72L404.51 472.27L404 471.84L403.48 471.42L402.93 471.03L402.92 471.01L351.72 435.68L351.36 435.42L351.02 435.16L350.69 434.87L350.37 434.58L350.07 434.28L349.79 433.97L349.51 433.65L349.25 433.32L349.01 432.98L348.78 432.63L348.57 432.28L348.37 431.92L348.18 431.55L348.01 431.17L347.85 430.79L347.71 430.41L347.58 430.02L347.47 429.62L347.38 429.23L347.29 428.82L347.23 428.42L347.18 428.01L347.14 427.61L347.12 427.2L347.12 426.79L347.13 426.38L347.16 425.97L347.21 425.56L347.27 425.15L347.34 424.74L347.44 424.33L347.54 423.93L347.67 423.53L347.81 423.13L347.97 422.74L348.14 422.35L348.34 421.97L348.54 421.59L348.77 421.22L349.01 420.85L349.27 420.49L349.54 420.15L349.82 419.82L350.11 419.51L350.41 419.2L350.72 418.92L351.04 418.64L351.37 418.38L351.71 418.14L352.06 417.91L352.41 417.69L352.77 417.49L353.14 417.31L353.51 417.13L353.89 416.98L354.28 416.83L354.67 416.71L355.06 416.6L355.46 416.5L355.86 416.42L356.26 416.35L356.67 416.3L357.08 416.26L357.49 416.24L357.9 416.24L358.31 416.25L358.72 416.28L359.13 416.32L359.54 416.38L359.95 416.46L360.35 416.55L360.76 416.66L361.16 416.78L361.55 416.92L361.95 417.08L362.34 417.25L362.72 417.45L363.1 417.65L363.47 417.88L363.84 418.12L433.94 466.49L434.21 466.67L434.47 466.83L434.74 466.99L435.01 467.14L435.29 467.29L435.57 467.43L435.84 467.57L436.13 467.7L436.41 467.82L436.7 467.94L436.98 468.06L437.27 468.16L437.56 468.27L437.86 468.36L438.15 468.45L438.45 468.54L438.75 468.61L439.05 468.69L439.35 468.75L439.65 468.82L439.95 468.87L440.26 468.92L440.56 468.96L440.87 469L441.17 469.03L441.48 469.06L441.79 469.07L442.1 469.09L442.41 469.09L442.72 469.1L443.03 469.09L443.34 469.08L443.65 469.06L443.96 469.04L444.27 469.01L444.57 468.97L444.88 468.93L445.19 468.88L445.5 468.83L445.81 468.77L446.28 468.67L446.75 468.55L447.21 468.42L447.66 468.28L448.11 468.13L448.56 467.96L448.99 467.78L449.42 467.59L449.84 467.39L450.26 467.17L450.67 466.94L451.07 466.7L451.46 466.45L451.85 466.19L452.22 465.92L452.59 465.64L452.95 465.34L453.3 465.04L453.64 464.73L453.98 464.4L454.3 464.07L454.61 463.73L454.91 463.38L455.21 463.02L455.49 462.65L455.76 462.27L456.02 461.89L456.27 461.5L456.51 461.09L456.74 460.69L456.95 460.27L457.16 459.85L457.35 459.42L457.53 458.98L457.7 458.54L457.85 458.09L457.99 457.63L458.12 457.17L458.23 456.71L458.33 456.24L458.42 455.76L458.49 455.29L458.55 454.81L458.59 454.34L458.62 453.86L458.63 453.39L458.64 452.92L458.62 452.45L458.59 451.98L458.55 451.51L458.5 451.05L458.43 450.59L458.35 450.13L458.25 449.67L458.14 449.22L458.02 448.77L457.89 448.33L457.74 447.89L457.58 447.45L457.41 447.02L457.23 446.6L457.03 446.18L456.82 445.76L456.6 445.36L456.37 444.95L456.12 444.56L455.86 444.17L455.6 443.79L455.32 443.42L455.03 443.05L454.72 442.69L454.41 442.34L454.09 442L453.75 441.67L453.4 441.35L453.05 441.04L452.68 440.73L452.3 440.44L451.92 440.15L451.52 439.88L451.48 439.85L383.7 392.98L383.46 392.82L383.23 392.65L383.01 392.47L382.79 392.29L382.58 392.11L382.38 391.91L382.18 391.72L381.98 391.52L381.79 391.31L381.61 391.1L381.43 390.89L381.26 390.67L381.09 390.45L380.93 390.22L380.78 389.99L380.63 389.75L380.49 389.51L380.36 389.27L380.23 389.03L380.11 388.78L379.99 388.53L379.88 388.27L379.78 388.02L379.68 387.76L379.59 387.5L379.51 387.23L379.44 386.96L379.37 386.69L379.31 386.42L379.25 386.15L379.2 385.88L379.16 385.6L379.13 385.32L379.11 385.04L379.09 384.76L379.08 384.48L379.07 384.2L379.08 383.91L379.09 383.63L379.11 383.34L379.13 383.06L379.17 382.78L379.21 382.49L379.26 382.22L379.31 381.94L379.38 381.67L379.45 381.39L379.52 381.12L379.61 380.86L379.7 380.59L379.8 380.33L379.9 380.08L380.01 379.82L380.13 379.57L380.25 379.32L380.38 379.08L380.52 378.84L380.66 378.6L380.81 378.36L380.96 378.13L381.12 377.91L381.29 377.69L381.46 377.47L381.64 377.26L381.82 377.05L382.01 376.85L382.2 376.65L382.4 376.45L382.61 376.27L382.82 376.08L383.03 375.9L383.25 375.73L383.48 375.56L383.71 375.4L383.94 375.25L384.18 375.1L384.42 374.95L384.67 374.81L384.92 374.68L385.18 374.56L385.44 374.44L385.7 374.33L385.96 374.22L386.23 374.13L386.5 374.04L386.77 373.96L387.04 373.88L387.31 373.81L387.58 373.75L387.86 373.7L388.13 373.66L388.41 373.62L388.68 373.59L388.96 373.56L389.24 373.55L389.51 373.54L389.79 373.53L390.07 373.54L390.34 373.55L390.62 373.57L390.89 373.6L391.17 373.63L391.44 373.67L391.72 373.72L391.99 373.77L392.26 373.84L392.53 373.91L392.79 373.98L393.06 374.07L393.32 374.16L393.58 374.25L393.84 374.36L394.1 374.47L394.35 374.59L394.61 374.71L394.85 374.84L395.1 374.98L395.34 375.13L395.58 375.28L395.82 375.44L465.87 423.86L465.96 423.91L466.51 424.25L467.08 424.56L467.65 424.85L468.23 425.11L468.82 425.35L469.41 425.57L470 425.76L470.6 425.92L471.21 426.06L471.81 426.18L472.42 426.28L473.03 426.35L473.64 426.4L474.25 426.42L474.86 426.42L475.47 426.4L476.08 426.35L476.68 426.29L477.29 426.19L477.88 426.08L478.48 425.95L479.06 425.79L479.64 425.61L480.22 425.41L480.79 425.19L481.35 424.94L481.9 424.68L482.44 424.39L482.97 424.08L483.49 423.75L484 423.4L484.49 423.03L484.98 422.64L485.45 422.22L485.9 421.79L486.34 421.34L486.77 420.87L487.18 420.37L487.57 419.86L487.95 419.33L488.19 418.96L488.42 418.58L488.64 418.2L488.85 417.81L489.05 417.42L489.23 417.02L489.41 416.63L489.57 416.22L489.73 415.82L489.87 415.41L490 415L490.12 414.58L490.22 414.16L490.32 413.75L490.41 413.32L490.48 412.9L490.54 412.48L490.59 412.05L490.63 411.62L490.66 411.19L490.68 410.77L490.69 410.34L490.68 409.91L490.66 409.48L490.63 409.05L490.59 408.62L490.54 408.19L490.48 407.77L490.41 407.34L490.32 406.92L490.22 406.5L490.12 406.08L489.99 405.66L489.86 405.25L489.72 404.83L489.57 404.42L489.4 404.02L489.22 403.61L489.03 403.21L488.83 402.82L488.83 402.81L488.81 402.77L488.8 402.75L488.77 402.7L488.75 402.66L488.74 402.64L488.72 402.61L488.71 402.58L488.7 402.56L488.7 402.56L488.69 402.55L488.69 402.53L488.68 402.51L488.67 402.5L488.66 402.48L488.66 402.46L488.65 402.45L488.56 402.29L488.46 402.14L488.36 401.98L488.25 401.82L488.15 401.67L488.05 401.51L487.94 401.36L487.83 401.21L487.72 401.06L487.61 400.91L487.5 400.76L487.38 400.62L487.27 400.47L487.15 400.33L487.03 400.18L486.91 400.04L486.79 399.9L486.66 399.76L486.54 399.63L486.41 399.49L486.28 399.36L486.15 399.22L486.02 399.09L485.89 398.96L485.76 398.83L485.62 398.7L485.48 398.58L485.35 398.45L485.21 398.33L485.07 398.21L484.93 398.09L484.78 397.97L484.64 397.85L484.49 397.73L484.34 397.62L484.2 397.51L484.05 397.39L483.9 397.28L483.74 397.18L483.59 397.07L379.6 330.1L379.55 330.08L379.5 330.06L379.45 330.05L379.4 330.03L379.35 330.01L379.3 329.99L379.25 329.97L379.21 329.96L379.16 329.94L379.11 329.92L379.06 329.9L379.01 329.88L378.96 329.86L378.91 329.84L378.86 329.82L378.81 329.8L378.77 329.78L378.72 329.76L378.67 329.74L378.62 329.71L378.57 329.69L378.53 329.67L378.48 329.65L378.43 329.63L378.38 329.6L378.34 329.58L378.29 329.56L378.24 329.53L378.19 329.51L378.15 329.49L378.1 329.46L378.05 329.44L378.01 329.41L377.96 329.39L377.91 329.36L377.87 329.34L377.82 329.31L377.78 329.29L377.73 329.26L377.68 329.24L350.49 311.93L349.12 312.54L347.75 313.13L346.37 313.7L344.99 314.25L343.6 314.77L342.2 315.28L340.79 315.77L339.38 316.24L337.97 316.68L336.55 317.11L335.12 317.52L333.69 317.9L332.25 318.27L330.81 318.61L329.37 318.94L327.92 319.24L326.47 319.52L325.01 319.79L323.55 320.03L322.09 320.25L320.62 320.45L319.15 320.63L317.68 320.79L316.21 320.93L314.73 321.04L313.25 321.14L311.78 321.22L310.29 321.27L308.81 321.31L307.33 321.32L305.85 321.31L304.36 321.28L302.88 321.23L301.39 321.16L299.91 321.07L298.42 320.95L296.94 320.82L295.46 320.66L293.98 320.49L292.5 320.29L291.53 320.12L290.58 319.93L289.64 319.71L288.71 319.46L287.79 319.18L286.89 318.87L286 318.54L285.12 318.18L284.25 317.79L283.4 317.38L282.57 316.94L281.75 316.48L280.95 315.99L280.16 315.48L279.39 314.95L278.64 314.39L277.91 313.82L277.19 313.21L276.5 312.59L275.82 311.95L275.16 311.29L274.53 310.6L273.91 309.9L273.32 309.18L272.75 308.44L272.2 307.68L271.67 306.9L271.17 306.11L270.69 305.3L270.24 304.48L269.81 303.63L269.41 302.78L269.03 301.91L268.68 301.02L268.35 300.12L268.06 299.21L267.79 298.29L267.55 297.35L267.33 296.4L267.15 295.44L267.02 294.65L266.91 293.85L266.82 293.05L266.75 292.26L266.7 291.46L266.67 290.67L266.66 289.88L266.67 289.09L266.71 288.3L266.76 287.51L266.83 286.73L266.93 285.95L267.04 285.17L267.17 284.4L267.32 283.63L267.5 282.86L267.69 282.1L267.9 281.35L268.13 280.6L268.37 279.86L268.64 279.13L268.93 278.4L269.23 277.68L269.55 276.97L269.89 276.26L270.25 275.56L270.63 274.88L271.02 274.2L271.44 273.53L271.87 272.87L272.31 272.22L272.78 271.58L273.26 270.95L273.76 270.34L274.28 269.73L274.81 269.14L275.36 268.56L275.93 267.99L276.51 267.44L277.11 266.9L183.48 266.9L108.89 378.78ZM274.92 479.59L274.32 479.67L273.72 479.78L273.12 479.93L272.53 480.12L271.95 480.34L271.38 480.6L270.83 480.89L270.29 481.22L269.76 481.59L269.25 482L243.05 502.25L242.57 502.63L242.23 502.96L241.9 503.31L241.6 503.66L241.31 504.03L241.04 504.41L240.79 504.8L240.56 505.2L240.34 505.61L240.15 506.02L239.97 506.45L239.81 506.88L239.68 507.31L239.56 507.75L239.46 508.2L239.38 508.65L239.31 509.1L239.27 509.56L239.25 510.02L239.25 510.48L239.27 510.94L239.31 511.4L239.37 511.86L239.45 512.32L239.56 512.78L239.68 513.24L239.83 513.69L239.99 514.14L240.18 514.57L240.38 514.99L240.6 515.4L240.84 515.8L241.09 516.19L241.36 516.57L241.65 516.93L241.95 517.27L242.26 517.61L242.59 517.93L242.93 518.23L243.29 518.52L243.65 518.79L244.03 519.05L244.42 519.29L244.82 519.51L245.24 519.72L245.66 519.91L246.09 520.07L246.52 520.23L246.97 520.36L247.42 520.47L247.88 520.56L248.35 520.63L248.82 520.68L249.14 520.71L249.46 520.73L249.78 520.74L250.09 520.73L250.41 520.72L250.73 520.7L251.04 520.67L251.35 520.62L251.66 520.57L251.97 520.51L252.28 520.44L252.58 520.36L252.88 520.27L253.18 520.17L253.47 520.06L253.76 519.94L254.05 519.81L254.33 519.67L254.61 519.53L254.88 519.37L255.15 519.21L255.42 519.03L255.68 518.85L255.93 518.66L256.18 518.46L256.43 518.26L283.1 497.63L283.57 497.17L283.99 496.69L284.39 496.2L284.75 495.68L285.07 495.15L285.36 494.6L285.62 494.04L285.84 493.46L286.03 492.88L286.18 492.29L286.3 491.69L286.38 491.09L286.43 490.48L286.44 489.88L286.41 489.27L286.36 488.66L286.26 488.06L286.13 487.46L285.97 486.87L285.77 486.29L285.53 485.71L285.26 485.15L284.95 484.6L284.61 484.07L284.23 483.55L283.81 483.05L283.36 482.58L282.9 482.14L282.41 481.73L281.9 481.36L281.37 481.02L280.83 480.72L280.28 480.45L279.71 480.21L279.13 480.01L278.55 479.85L277.95 479.72L277.35 479.62L276.74 479.56L276.14 479.53L275.53 479.54L274.92 479.59ZM247.61 447.79L247.39 447.8L247.16 447.81L246.94 447.82L246.72 447.85L246.5 447.87L246.28 447.9L246.06 447.94L245.84 447.98L245.63 448.02L245.41 448.07L245.2 448.13L244.98 448.18L244.77 448.25L244.56 448.31L244.36 448.39L244.15 448.46L243.94 448.54L243.74 448.63L243.54 448.72L243.34 448.81L243.14 448.91L242.94 449.01L242.75 449.12L242.56 449.23L242.37 449.34L242.18 449.46L242 449.59L241.82 449.71L241.64 449.85L241.46 449.98L241.29 450.12L241.11 450.27L233.58 456.14L233.57 456.15L233.57 456.16L233.56 456.16L233.55 456.17L233.55 456.18L233.54 456.18L233.53 456.19L233.53 456.2L233.52 456.2L233.51 456.21L233.51 456.22L233.49 456.23L233.45 456.28L233.44 456.3L233.43 456.31L233.42 456.32L233.41 456.32L233.41 456.33L233.4 456.34L233.39 456.34L233.39 456.35L233.38 456.36L233.37 456.36L233.36 456.37L226.01 462.05L201.07 481.52L200.9 481.68L200.73 481.84L200.56 482.01L200.4 482.19L200.24 482.36L200.09 482.54L199.94 482.72L199.79 482.91L199.65 483.1L199.52 483.29L199.39 483.49L199.26 483.69L199.14 483.89L199.02 484.09L198.91 484.3L198.8 484.5L198.7 484.72L198.6 484.93L198.51 485.14L198.42 485.36L198.34 485.58L198.26 485.8L198.19 486.03L198.12 486.25L198.06 486.48L198 486.71L197.95 486.94L197.9 487.17L197.86 487.4L197.82 487.64L197.79 487.87L197.77 488.11L197.75 488.35L197.73 488.6L197.72 488.85L197.71 489.1L197.71 489.35L197.72 489.6L197.73 489.85L197.75 490.1L197.77 490.34L197.8 490.59L197.83 490.83L197.87 491.08L197.92 491.32L197.97 491.56L198.03 491.8L198.1 492.04L198.17 492.28L198.24 492.51L198.32 492.75L198.41 492.98L198.5 493.21L198.6 493.43L198.7 493.66L198.81 493.88L198.92 494.1L199.04 494.32L199.17 494.53L199.3 494.75L199.43 494.95L199.57 495.16L199.72 495.36L199.87 495.56L200.03 495.76L200.19 495.95L200.35 496.14L200.52 496.33L200.69 496.51L200.87 496.69L201.05 496.86L201.23 497.03L201.42 497.19L201.61 497.35L201.81 497.5L202.01 497.65L202.21 497.79L202.41 497.93L202.62 498.06L202.83 498.19L203.05 498.31L203.26 498.43L203.48 498.55L203.71 498.65L203.93 498.76L204.16 498.85L204.39 498.95L204.62 499.03L204.85 499.11L205.09 499.19L205.33 499.26L205.57 499.32L205.81 499.38L206.05 499.44L206.3 499.48L206.54 499.52L206.79 499.56L207.04 499.59L207.29 499.61L207.54 499.63L207.79 499.64L208.04 499.65L208.29 499.65L208.54 499.64L208.79 499.63L209.04 499.61L209.28 499.59L209.53 499.56L209.77 499.52L210.02 499.48L210.26 499.43L210.5 499.38L210.74 499.32L210.98 499.26L211.22 499.19L211.45 499.11L211.69 499.03L211.92 498.94L212.15 498.85L212.37 498.75L212.6 498.65L212.82 498.54L213.04 498.43L213.26 498.31L213.47 498.19L213.69 498.06L213.9 497.92L214.1 497.78L214.31 497.64L214.51 497.49L214.7 497.33L214.9 497.17L229.13 486.06L229.16 486.04L229.99 485.4L254.94 465.92L255.21 465.66L255.47 465.39L255.72 465.12L255.96 464.83L256.18 464.54L256.4 464.25L256.6 463.94L256.8 463.63L256.98 463.32L257.15 463L257.31 462.67L257.46 462.34L257.59 462L257.72 461.66L257.83 461.32L257.93 460.97L258.02 460.62L258.09 460.27L258.16 459.91L258.21 459.56L258.25 459.2L258.28 458.83L258.29 458.47L258.29 458.11L258.28 457.74L258.26 457.38L258.22 457.01L258.17 456.65L258.11 456.29L258.03 455.93L257.94 455.56L257.84 455.2L257.72 454.85L257.6 454.49L257.46 454.15L257.3 453.81L257.14 453.48L256.97 453.15L256.78 452.83L256.59 452.52L256.38 452.22L256.17 451.93L255.94 451.64L255.71 451.36L255.47 451.09L255.21 450.83L254.95 450.58L254.68 450.34L254.41 450.11L254.12 449.89L253.83 449.68L253.53 449.47L253.22 449.28L252.91 449.1L252.59 448.93L252.26 448.77L251.93 448.62L251.59 448.49L251.25 448.36L250.9 448.25L250.55 448.15L250.19 448.06L249.83 447.98L249.46 447.92L249.09 447.87L248.72 447.83L248.69 447.82L248.66 447.82L248.64 447.82L248.61 447.82L248.58 447.82L248.56 447.81L248.53 447.81L248.5 447.81L248.48 447.81L248.45 447.81L248.42 447.8L248.4 447.8L248.37 447.8L248.34 447.8L248.32 447.8L248.29 447.8L248.26 447.8L248.24 447.79L248.21 447.79L248.18 447.79L248.16 447.79L248.13 447.79L248.1 447.79L248.07 447.79L248.05 447.79L248.02 447.79L247.99 447.79L247.97 447.79L247.94 447.79L247.91 447.79L247.89 447.79L247.86 447.79L247.83 447.79L247.61 447.79ZM208.44 411.9L207.93 411.93L207.41 411.98L206.9 412.05L206.39 412.13L205.88 412.23L205.38 412.35L204.88 412.48L204.38 412.63L203.89 412.8L203.4 412.98L202.92 413.17L202.44 413.39L201.97 413.62L201.51 413.86L201.05 414.13L200.6 414.4L200.16 414.7L199.73 415.01L199.3 415.33L198.89 415.67L165.29 441.65L164.9 442.01L164.53 442.38L164.17 442.77L163.82 443.16L163.49 443.56L163.17 443.97L162.87 444.39L162.58 444.82L162.3 445.26L162.04 445.7L161.8 446.16L161.57 446.61L161.36 447.08L161.16 447.55L160.97 448.03L160.8 448.51L160.65 449L160.51 449.49L160.39 449.98L160.29 450.48L160.2 450.99L160.12 451.49L160.06 452L160.02 452.51L160 453.02L159.99 453.54L160 454.05L160.02 454.57L160.06 455.08L160.12 455.6L160.19 456.11L160.29 456.63L160.39 457.14L160.52 457.65L160.67 458.16L160.83 458.66L161 459.16L161.2 459.66L161.41 460.14L161.63 460.61L161.87 461.08L162.12 461.53L162.38 461.98L162.66 462.41L162.96 462.84L163.26 463.25L163.58 463.66L163.91 464.05L164.25 464.43L164.61 464.8L164.97 465.16L165.35 465.5L165.73 465.84L166.13 466.16L166.54 466.47L166.95 466.76L167.38 467.04L167.81 467.31L168.26 467.57L168.71 467.81L169.17 468.03L169.64 468.24L170.11 468.44L170.6 468.62L171.09 468.79L171.58 468.94L172.08 469.07L172.59 469.19L173.11 469.3L173.63 469.38L174.15 469.45L174.68 469.51L175.03 469.53L175.38 469.55L175.73 469.56L176.08 469.57L176.44 469.56L176.79 469.55L177.13 469.53L177.48 469.5L177.83 469.47L178.17 469.42L178.52 469.37L178.86 469.32L179.2 469.25L179.54 469.18L179.88 469.1L180.22 469.01L180.55 468.92L180.88 468.81L181.21 468.7L181.54 468.59L181.86 468.46L182.18 468.33L182.5 468.2L182.82 468.05L183.13 467.9L183.44 467.74L183.75 467.57L184.05 467.4L184.35 467.22L184.64 467.04L184.94 466.84L185.22 466.64L185.51 466.44L185.79 466.22L186.06 466L186.34 465.78L211.05 446.67L220.19 439.54L220.43 439.31L220.67 439.08L220.9 438.85L221.12 438.61L221.34 438.36L221.55 438.11L221.76 437.86L221.96 437.6L222.15 437.34L222.34 437.08L222.53 436.81L222.71 436.54L222.88 436.26L223.05 435.99L223.21 435.7L223.37 435.42L223.52 435.13L223.66 434.84L223.8 434.55L223.93 434.25L224.06 433.95L224.18 433.65L224.29 433.35L224.4 433.04L224.5 432.73L224.59 432.42L224.68 432.11L224.76 431.79L224.84 431.47L224.91 431.15L224.97 430.83L225.02 430.51L225.07 430.19L225.11 429.86L225.15 429.53L225.18 429.2L225.21 428.67L225.23 428.13L225.23 427.6L225.21 427.07L225.18 426.54L225.13 426.02L225.06 425.5L224.97 424.98L224.87 424.47L224.75 423.96L224.61 423.46L224.46 422.96L224.29 422.47L224.11 421.99L223.91 421.51L223.7 421.04L223.47 420.58L223.23 420.12L222.97 419.67L222.69 419.23L222.41 418.8L222.11 418.38L221.79 417.97L221.47 417.57L221.13 417.18L220.77 416.79L220.4 416.42L220.02 416.07L219.63 415.72L219.23 415.39L218.81 415.06L218.38 414.75L217.94 414.46L217.49 414.18L217.03 413.91L216.55 413.65L216.07 413.41L215.58 413.19L215.09 412.99L214.59 412.8L214.09 412.64L213.59 412.48L213.08 412.35L212.57 412.23L212.06 412.13L211.54 412.05L211.03 411.98L210.51 411.93L210 411.9L209.48 411.88L208.96 411.88L208.44 411.9ZM159.65 394.92L159.37 394.93L159.09 394.96L158.81 394.99L158.53 395.04L158.25 395.08L157.98 395.14L157.7 395.21L157.43 395.28L157.16 395.36L156.9 395.44L156.63 395.53L156.37 395.63L156.11 395.74L155.86 395.86L155.6 395.98L155.35 396.1L155.11 396.24L154.87 396.38L154.63 396.53L154.39 396.68L154.16 396.85L153.93 397.01L153.71 397.19L153.49 397.37L126.81 418L126.47 418.33L126.15 418.67L125.84 419.03L125.56 419.4L125.29 419.78L125.04 420.17L124.8 420.56L124.59 420.97L124.39 421.39L124.21 421.81L124.06 422.24L123.92 422.68L123.8 423.12L123.7 423.57L123.61 424.02L123.55 424.47L123.51 424.93L123.49 425.39L123.49 425.85L123.51 426.31L123.55 426.77L123.61 427.23L123.69 427.69L123.79 428.15L123.92 428.61L124.06 429.06L124.23 429.5L124.41 429.94L124.62 430.36L124.84 430.78L125.07 431.18L125.33 431.56L125.6 431.94L125.88 432.3L126.18 432.65L126.5 432.98L126.83 433.3L127.17 433.6L127.52 433.89L127.89 434.17L128.27 434.42L128.66 434.66L129.06 434.89L129.47 435.09L129.89 435.28L130.32 435.45L130.76 435.6L131.21 435.73L131.66 435.84L132.12 435.94L132.59 436.01L133.06 436.06L133.28 436.07L133.5 436.08L133.73 436.08L133.96 436.07L134.2 436.05L134.45 436.03L134.7 435.99L134.96 435.95L135.22 435.89L135.49 435.83L135.77 435.76L136.05 435.68L136.34 435.59L136.64 435.49L136.94 435.38L137.25 435.27L137.56 435.14L137.88 435.01L138.21 434.87L138.54 434.72L138.88 434.56L139.23 434.39L139.58 434.21L139.93 434.03L140.3 433.83L140.67 433.63L167.34 413.01L167.68 412.67L168.01 412.33L168.31 411.97L168.6 411.6L168.87 411.22L169.12 410.83L169.35 410.44L169.57 410.03L169.77 409.61L169.94 409.19L170.1 408.76L170.24 408.32L170.36 407.88L170.46 407.43L170.54 406.98L170.61 406.53L170.65 406.07L170.67 405.61L170.67 405.15L170.65 404.69L170.61 404.23L170.55 403.76L170.47 403.3L170.37 402.85L170.24 402.39L170.1 401.94L169.93 401.49L169.75 401.06L169.54 400.63L169.32 400.22L169.09 399.82L168.83 399.43L168.56 399.06L168.28 398.69L167.98 398.35L167.66 398.01L167.33 397.69L166.99 397.39L166.63 397.1L166.27 396.83L165.89 396.57L165.5 396.33L165.1 396.11L164.68 395.9L164.26 395.71L163.83 395.54L163.39 395.39L162.95 395.26L162.49 395.15L162.03 395.05L161.57 394.98L161.09 394.93L161.06 394.93L161.03 394.93L160.99 394.93L160.96 394.92L160.93 394.92L160.89 394.92L160.86 394.92L160.82 394.92L160.79 394.91L160.76 394.91L160.72 394.91L160.69 394.91L160.66 394.91L160.62 394.91L160.59 394.91L160.55 394.91L160.52 394.9L160.49 394.9L160.45 394.9L160.42 394.9L160.39 394.9L160.35 394.9L160.32 394.9L160.29 394.9L160.25 394.9L160.22 394.9L159.93 394.9L159.65 394.92ZM341.95 256.33L340.33 256.41L338.79 256.52L337.3 256.65L335.89 256.82L334.53 257L333.24 257.2L332.01 257.43L330.84 257.67L329.73 257.93L328.68 258.19L327.68 258.48L326.74 258.77L325.85 259.07L325.02 259.37L324.23 259.68L323.5 259.99L322.82 260.3L322.18 260.61L321.59 260.92L321.05 261.22L320.56 261.51L320.1 261.8L319.69 262.07L319.32 262.33L318.99 262.58L318.7 262.81L318.45 263.02L318.42 263.04L318.39 263.07L318.36 263.1L318.33 263.12L318.3 263.15L318.27 263.18L318.24 263.2L318.21 263.23L318.18 263.26L318.15 263.28L318.12 263.31L318.09 263.34L318.06 263.37L318.03 263.4L318 263.42L317.97 263.45L317.94 263.48L317.92 263.51L317.89 263.54L317.86 263.57L317.83 263.6L317.8 263.63L317.77 263.65L317.75 263.68L317.72 263.71L317.69 263.74L317.66 263.77L317.64 263.8L317.61 263.83L317.58 263.86L317.56 263.89L317.53 263.92L317.5 263.95L317.48 263.99L317.45 264.02L317.43 264.05L317.4 264.08L317.37 264.11L317.35 264.14L317.32 264.17L317.29 264.24L317.26 264.3L317.22 264.36L317.19 264.43L317.15 264.49L317.12 264.55L317.08 264.62L317.04 264.68L317 264.74L316.97 264.8L316.93 264.86L316.89 264.92L316.85 264.98L316.8 265.04L316.76 265.1L316.72 265.16L316.68 265.22L316.63 265.27L316.59 265.33L316.55 265.39L316.5 265.44L316.46 265.5L316.41 265.56L316.36 265.61L316.32 265.66L316.27 265.72L316.22 265.77L316.17 265.82L316.12 265.88L316.07 265.93L316.02 265.98L315.97 266.03L315.92 266.08L315.87 266.13L315.81 266.18L315.76 266.23L315.71 266.28L315.65 266.33L315.6 266.38L315.54 266.42L315.02 266.86L314.5 267.29L313.98 267.71L313.46 268.14L312.93 268.56L312.4 268.98L311.87 269.4L311.34 269.81L310.8 270.22L310.26 270.63L309.72 271.03L309.18 271.43L308.63 271.83L308.09 272.23L307.54 272.62L306.99 273.01L306.43 273.39L305.88 273.78L305.32 274.16L304.76 274.53L304.2 274.91L303.64 275.28L303.07 275.64L302.5 276.01L301.93 276.37L301.36 276.73L300.79 277.08L300.21 277.44L299.64 277.78L299.06 278.13L298.48 278.47L297.89 278.81L297.31 279.15L296.72 279.48L296.13 279.81L295.54 280.14L294.95 280.46L294.35 280.78L293.76 281.1L293.16 281.41L292.88 281.56L292.61 281.72L292.34 281.89L292.08 282.06L291.83 282.25L291.59 282.44L291.35 282.63L291.12 282.84L290.9 283.05L290.68 283.26L290.47 283.49L290.27 283.72L290.08 283.95L289.89 284.19L289.72 284.44L289.55 284.69L289.39 284.94L289.23 285.21L289.09 285.47L288.95 285.74L288.83 286.02L288.71 286.29L288.6 286.57L288.5 286.86L288.4 287.15L288.32 287.44L288.25 287.73L288.18 288.03L288.12 288.33L288.08 288.63L288.04 288.94L288.01 289.24L288 289.55L287.99 289.86L287.99 290.17L288 290.48L288.03 290.79L288.06 291.1L288.1 291.41L288.16 291.72L288.21 292.02L288.27 292.31L288.34 292.6L288.42 292.89L288.51 293.17L288.61 293.45L288.71 293.72L288.83 293.99L288.95 294.25L289.08 294.51L289.22 294.76L289.37 295.01L289.52 295.26L289.69 295.49L289.85 295.73L290.03 295.95L290.21 296.17L290.41 296.39L290.6 296.6L290.81 296.8L291.02 296.99L291.23 297.18L291.45 297.36L291.68 297.54L291.91 297.71L292.15 297.87L292.4 298.02L292.65 298.16L292.9 298.3L293.16 298.43L293.42 298.55L293.69 298.66L293.96 298.77L294.24 298.86L294.52 298.95L294.81 299.03L295.09 299.1L295.39 299.15L295.68 299.2L295.98 299.25L297.27 299.4L298.55 299.54L299.84 299.66L301.13 299.76L302.41 299.84L303.7 299.9L304.99 299.94L306.28 299.96L307.56 299.96L308.85 299.94L310.13 299.9L311.41 299.84L312.69 299.77L313.97 299.67L315.25 299.55L316.52 299.42L317.8 299.26L319.07 299.09L320.33 298.89L321.6 298.68L322.86 298.45L324.11 298.2L325.37 297.93L326.61 297.64L327.86 297.33L329.1 297.01L330.33 296.66L331.56 296.3L332.79 295.91L334.01 295.51L335.22 295.09L336.43 294.65L337.63 294.19L338.83 293.71L340.02 293.22L341.2 292.7L342.38 292.17L343.55 291.62L344.71 291.05L345.87 290.46L346.12 290.32L346.39 290.18L346.65 290.06L346.92 289.94L347.19 289.82L347.46 289.72L347.74 289.62L348.01 289.53L348.29 289.45L348.57 289.38L348.85 289.31L349.13 289.25L349.42 289.2L349.7 289.16L349.99 289.12L350.27 289.09L350.56 289.07L350.84 289.06L351.13 289.06L351.42 289.06L351.7 289.07L351.99 289.09L352.27 289.11L352.56 289.15L352.84 289.19L353.13 289.24L353.41 289.29L353.69 289.36L353.97 289.43L354.25 289.51L354.52 289.6L354.8 289.69L355.07 289.79L355.34 289.9L355.6 290.02L355.87 290.15L356.13 290.28L356.39 290.42L356.64 290.57L356.9 290.72L388.28 310.68L388.31 310.69L388.35 310.7L388.39 310.72L388.43 310.73L388.47 310.74L388.51 310.75L388.55 310.77L388.58 310.78L388.62 310.79L388.66 310.8L388.7 310.82L388.74 310.83L388.78 310.85L388.81 310.86L388.85 310.87L388.89 310.89L388.93 310.9L388.97 310.91L389 310.93L389.04 310.94L389.08 310.96L389.12 310.97L389.15 310.99L389.19 311L389.23 311.02L389.27 311.03L389.3 311.05L389.34 311.07L389.38 311.08L389.41 311.1L389.45 311.11L389.49 311.13L389.52 311.15L389.56 311.16L389.6 311.18L389.64 311.2L389.67 311.21L389.71 311.23L389.74 311.25L389.78 311.27L495.27 379.21L495.33 379.26L495.4 379.31L495.47 379.36L495.53 379.41L495.6 379.47L495.67 379.52L495.75 379.58L495.82 379.64L495.89 379.7L495.97 379.76L496.05 379.82L496.12 379.89L496.2 379.95L496.28 380.02L496.37 380.09L496.45 380.16L496.54 380.23L496.62 380.3L496.71 380.38L496.8 380.45L496.89 380.53L496.98 380.61L497.07 380.69L497.17 380.77L497.27 380.85L497.36 380.94L497.46 381.02L497.56 381.11L497.66 381.2L497.76 381.29L497.87 381.38L497.97 381.48L498.08 381.57L498.19 381.67L498.3 381.77L498.41 381.87L498.52 381.97L498.63 382.07L498.75 382.17L498.86 382.28L519.61 361.54L456.5 266.91L418.8 277.19L418.63 277.24L418.45 277.28L418.28 277.32L418.1 277.36L417.93 277.4L417.75 277.43L417.58 277.46L417.4 277.48L417.22 277.51L417.05 277.53L416.87 277.54L416.69 277.56L416.51 277.57L416.34 277.57L416.16 277.58L415.98 277.58L415.8 277.58L415.63 277.57L415.45 277.57L415.27 277.55L415.1 277.54L414.92 277.52L414.74 277.51L414.57 277.48L414.39 277.46L414.21 277.43L414.04 277.4L413.87 277.36L413.69 277.32L413.52 277.28L413.35 277.24L413.17 277.19L413 277.14L412.83 277.09L412.66 277.04L412.49 276.98L412.32 276.92L412.16 276.85L411.99 276.78L411.82 276.71L369.55 258.71L366.96 258.25L364.45 257.85L362.03 257.49L359.68 257.19L357.41 256.93L355.22 256.71L353.1 256.54L351.06 256.41L349.1 256.32L347.2 256.27L345.38 256.26L343.63 256.28L341.95 256.33ZM81.98 380.69L177.58 237.3L157.41 221.87L61.3 368.88L81.98 380.69ZM578.7 368.88L482.59 221.87L462.41 237.31L558.02 380.69L578.7 368.88ZM42.74 358.28L140.42 208.88L21.33 117.82L21.33 346.05L42.74 358.28ZM597.26 358.28L618.67 346.05L618.67 117.82L499.58 208.88L597.26 358.28Z" id="afmSh8LWw"></path></defs><g><g><g><use xlink:href="#afmSh8LWw" opacity="1" fill="#f16624" fill-opacity="1"></use><g><use xlink:href="#afmSh8LWw" opacity="1" fill-opacity="0" stroke="#000000" stroke-width="1" stroke-opacity="0"></use></g></g></g></g></svg>